<?xml version="1.0" standalone="no"?>
<svg viewBox="0 0 200 200" xmlns="http://www.w3.org/2000/svg">
  <path fill="#FF0066" d="M44,-76.2C57.5,-68.4,69.1,-57.5,78.1,-44.3C87.1,-31.1,93.5,-15.5,94.2,0.4C94.9,16.4,90,32.7,81.4,46.6C72.7,60.5,60.5,72,46.3,79.5C32.1,87,16.1,90.6,0.7,89.4C-14.6,88.1,-29.3,82.1,-42.8,74.3C-56.4,66.4,-68.8,56.6,-76.7,43.9C-84.7,31.3,-88.1,15.6,-87.2,0.5C-86.4,-14.6,-81.2,-29.3,-74.1,-43.4C-67,-57.5,-57.9,-71.1,-45.3,-79.3C-32.6,-87.6,-16.3,-90.5,-0.5,-89.6C15.3,-88.7,30.5,-84,44,-76.2Z" transform="translate(100 100)" />
</svg>
